<svg width="127" height="129" viewBox="0 0 127 129" fill="none" xmlns="http://www.w3.org/2000/svg">
<g filter="url(#filter0_d_21_1344)">
<rect x="0.944336" y="0.406738" width="124.766" height="124.766" rx="62.3827" fill="url(#paint0_radial_21_1344)"/>
<rect x="1.56199" y="1.02439" width="123.53" height="123.53" rx="61.7651" stroke="#FC8B00" stroke-width="1.2353"/>
</g>
<mask id="mask0_21_1344" style="mask-type:alpha" maskUnits="userSpaceOnUse" x="0" y="0" width="126" height="126">
<rect x="0.944336" y="0.406738" width="124.766" height="124.766" rx="62.3827" fill="url(#paint1_radial_21_1344)"/>
</mask>
<g mask="url(#mask0_21_1344)">
<g opacity="0.7">
<path d="M88.9009 79.4287C90.5708 87.2111 83.1898 93.8827 75.6151 91.4377L-19.7515 60.6541C-27.3261 58.2091 -29.4134 48.4811 -23.5087 43.1438L50.834 -24.0543C56.7388 -29.3916 66.2071 -26.3353 67.8769 -18.553L88.9009 79.4287Z" fill="url(#paint2_linear_21_1344)"/>
<path d="M101.558 93.7612C103.228 101.544 95.847 108.215 88.2724 105.77L-7.09423 74.9866C-14.6689 72.5416 -16.7562 62.8137 -10.8514 57.4763L63.4912 -9.72176C69.396 -15.0591 78.8643 -12.0028 80.5342 -4.22044L101.558 93.7612Z" fill="url(#paint3_linear_21_1344)"/>
</g>
<path d="M44.6901 77.8872C44.0183 77.9275 43.5223 77.9476 43.2019 77.9476C42.1478 77.9476 41.166 77.8168 40.2566 77.5553C39.1508 77.2434 38.293 76.7757 37.6833 76.152C35.7094 77.3491 33.5081 77.9476 31.0795 77.9476C27.6795 77.9476 24.7703 76.8159 22.352 74.5525C19.8924 72.2589 18.6626 69.4623 18.6626 66.1627C18.6626 62.8128 19.8614 59.976 22.259 57.6522C24.6463 55.3385 27.5658 54.1816 31.0175 54.1816C34.4176 54.1816 37.3422 55.2932 39.7915 57.5164C42.3028 59.7899 43.5584 62.5714 43.5584 65.8609C43.5584 68.396 42.9125 70.599 41.6207 72.4701C42.4061 73.1743 43.4293 73.4308 44.6901 73.2397V77.8872ZM37.5593 65.7704C37.5593 63.9194 36.9495 62.3803 35.73 61.153C34.5002 59.9257 32.9397 59.3121 31.0485 59.3121C29.333 59.3121 27.9017 59.8704 26.7545 60.987C25.6797 62.0232 24.9925 63.3913 24.6928 65.0913C25.3439 64.8197 25.8864 64.6336 26.3205 64.533C26.8682 64.3922 27.4366 64.3218 28.0257 64.3218C29.6689 64.3218 31.3017 64.8046 32.9242 65.7704C34.2987 66.6053 35.575 67.727 36.7532 69.1353C37.2906 68.24 37.5593 67.1184 37.5593 65.7704ZM33.7458 72.2287C33.2498 71.6553 32.8105 71.1825 32.4282 70.8103C31.9528 70.3375 31.4774 69.9502 31.002 69.6484C29.9169 68.9341 28.7129 68.577 27.3901 68.577C26.7287 68.577 26.0311 68.7028 25.2974 68.9543C26.4135 71.5295 28.3202 72.8172 31.0175 72.8172C32.0923 72.8172 33.0017 72.621 33.7458 72.2287Z" fill="#724D00"/>
<path d="M65.1524 68.4261C65.1524 69.9854 65.0181 71.2479 64.7494 72.2136C64.3877 73.4509 63.7418 74.5273 62.8116 75.4427C61.1478 77.0925 58.9569 77.9174 56.2389 77.9174C54.9161 77.9174 53.6966 77.7313 52.5805 77.3591C51.3197 76.9366 50.2862 76.3079 49.4801 75.4729C48.488 74.4569 47.8266 73.3705 47.4959 72.2136C47.3512 71.6905 47.2479 71.102 47.1859 70.4481C47.1445 69.925 47.1239 69.251 47.1239 68.4261V54.6041H53.123V68.4261C53.123 69.0297 53.154 69.5478 53.216 69.9803C53.2987 70.5336 53.4382 71.0014 53.6346 71.3837C54.11 72.3192 54.9574 72.787 56.1769 72.787C57.4377 72.787 58.2851 72.3293 58.7192 71.4139C58.8949 71.0416 59.0189 70.5789 59.0912 70.0256C59.1326 69.6232 59.1532 69.0901 59.1532 68.4261V54.6041H65.1524V68.4261Z" fill="#724D00"/>
<path d="M82.7624 77.4798L81.6153 74.1752H73.4614L72.2212 77.4798H65.7725L75.1976 54.6041H79.9256L89.2732 77.4798H82.7624ZM77.6158 61.7264H77.5228L75.1045 69.5428H80.0341L77.6158 61.7264Z" fill="#724D00"/>
<path d="M100.527 69.1655V77.4798H94.5283V69.1655L87.506 54.6041H94.0167L97.5046 63.7937L101.024 54.6041H107.472L100.527 69.1655Z" fill="#724D00"/>
</g>
<defs>
<filter id="filter0_d_21_1344" x="0.326685" y="0.406738" width="126.001" height="128.472" filterUnits="userSpaceOnUse" color-interpolation-filters="sRGB">
<feFlood flood-opacity="0" result="BackgroundImageFix"/>
<feColorMatrix in="SourceAlpha" type="matrix" values="0 0 0 0 0 0 0 0 0 0 0 0 0 0 0 0 0 0 127 0" result="hardAlpha"/>
<feMorphology radius="0.617651" operator="dilate" in="SourceAlpha" result="effect1_dropShadow_21_1344"/>
<feOffset dy="3.08825"/>
<feComposite in2="hardAlpha" operator="out"/>
<feColorMatrix type="matrix" values="0 0 0 0 0.408654 0 0 0 0 0.225409 0 0 0 0 0 0 0 0 1 0"/>
<feBlend mode="normal" in2="BackgroundImageFix" result="effect1_dropShadow_21_1344"/>
<feBlend mode="normal" in="SourceGraphic" in2="effect1_dropShadow_21_1344" result="shape"/>
</filter>
<radialGradient id="paint0_radial_21_1344" cx="0" cy="0" r="1" gradientUnits="userSpaceOnUse" gradientTransform="translate(63.3271 62.7895) rotate(90) scale(90.177)">
<stop stop-color="white"/>
<stop offset="1" stop-color="#FEE5A5"/>
</radialGradient>
<radialGradient id="paint1_radial_21_1344" cx="0" cy="0" r="1" gradientUnits="userSpaceOnUse" gradientTransform="translate(63.3271 62.7895) rotate(90) scale(90.177)">
<stop stop-color="white"/>
<stop offset="1" stop-color="#FEE5A5"/>
</radialGradient>
<linearGradient id="paint2_linear_21_1344" x1="92.6581" y1="96.939" x2="-12.6691" y2="-19.5866" gradientUnits="userSpaceOnUse">
<stop offset="0.14" stop-color="#FFB042" stop-opacity="0"/>
<stop offset="1" stop-color="#E88700"/>
</linearGradient>
<linearGradient id="paint3_linear_21_1344" x1="105.315" y1="111.272" x2="-0.0119136" y2="-5.25412" gradientUnits="userSpaceOnUse">
<stop offset="0.14" stop-color="#FFB042" stop-opacity="0"/>
<stop offset="1" stop-color="#E88700"/>
</linearGradient>
</defs>
</svg>
