<svg width="611" height="675" viewBox="0 0 611 675" fill="none" xmlns="http://www.w3.org/2000/svg" xmlns:xlink="http://www.w3.org/1999/xlink">
<g clip-path="url(#clip0_21_1366)">
<path d="M509.581 634.617C510.595 602.154 464.943 540.27 445.668 519.98C427.407 499.69 412.19 461.139 410.161 444.907H306.682H305.668H200.161C198.132 461.139 183.929 499.69 164.653 519.98C146.392 540.27 100.74 602.154 100.74 634.617C101.755 667.081 100.74 667.081 100.74 667.081H303.639H304.653H507.552C509.581 667.081 508.566 667.081 509.581 634.617Z" fill="url(#paint0_linear_21_1366)"/>
<path d="M530.888 632.59C527.844 629.547 523.786 629.547 523.786 629.547H305.67H87.5541C87.5541 629.547 83.4961 629.547 80.4527 632.59C77.4092 636.648 77.4092 642.735 77.4092 642.735V674.185H305.67H533.931V642.735C533.931 643.75 533.931 636.648 530.888 632.59Z" fill="url(#paint1_linear_21_1366)"/>
</g>
<g clip-path="url(#clip1_21_1366)">
<circle cx="305.327" cy="303.769" r="261.634" fill="url(#paint2_radial_21_1366)"/>
<path d="M290.119 302.677L84.4344 217.523C63.1597 272.625 63.1873 332.662 84.4777 387.843L290.123 302.673L290.119 302.677Z" fill="url(#paint3_radial_21_1366)"/>
<path d="M294.618 291.775L209.393 86.1714C155.355 110.126 112.896 152.547 88.9487 206.597L294.618 291.775Z" fill="url(#paint4_radial_21_1366)"/>
<path d="M220.313 81.6534L305.522 287.253L390.664 81.6061C335.562 60.3401 275.531 60.3599 220.313 81.6534Z" fill="url(#paint5_radial_21_1366)"/>
<path d="M316.421 291.758L522.051 206.54C498.096 152.514 455.669 110.065 401.607 86.1226L316.417 291.754L316.421 291.758Z" fill="url(#paint6_radial_21_1366)"/>
<path d="M526.585 217.483L320.935 302.645L526.628 387.772C547.906 332.693 547.879 272.66 526.585 217.483Z" fill="url(#paint7_radial_21_1366)"/>
<path d="M401.649 519.137C455.699 495.179 498.162 452.761 522.109 398.704L316.46 313.561L401.649 519.137Z" fill="url(#paint8_radial_21_1366)"/>
<path d="M390.724 523.662L305.55 318.146L220.377 523.706C275.491 544.972 335.542 544.952 390.72 523.662H390.724Z" fill="url(#paint9_radial_21_1366)"/>
<path d="M294.602 313.627L88.9995 398.769C112.955 452.792 155.39 495.245 209.448 519.187L294.602 313.627Z" fill="url(#paint10_radial_21_1366)"/>
<mask id="mask0_21_1366" style="mask-type:luminance" maskUnits="userSpaceOnUse" x="2" y="0" width="607" height="606">
<path d="M305.491 0C138.299 0 2.76172 135.499 2.76172 302.654C2.76172 469.809 138.299 605.316 305.491 605.316C472.684 605.316 608.221 469.817 608.221 302.654C608.221 135.491 472.692 0 305.491 0ZM305.491 552.725C167.337 552.725 55.3608 440.786 55.3608 302.654C55.3608 164.522 167.337 52.5834 305.491 52.5834C443.646 52.5834 555.61 164.53 555.61 302.654C555.61 440.778 443.646 552.725 305.491 552.725Z" fill="white"/>
</mask>
<g mask="url(#mask0_21_1366)">
<path d="M608.241 302.655C608.241 469.818 472.712 605.317 305.511 605.317C138.31 605.317 2.78125 469.818 2.78125 302.655C2.78125 135.491 138.318 0.000488281 305.511 0.000488281C472.704 0.000488281 608.241 135.499 608.241 302.655Z" fill="url(#paint11_radial_21_1366)"/>
<path d="M602.489 302.654C602.489 466.64 469.526 599.573 305.511 599.573C141.496 599.573 8.52979 466.64 8.52979 302.654C8.52979 138.668 141.488 5.74316 305.511 5.74316C469.534 5.74316 602.489 138.676 602.489 302.654Z" fill="url(#paint12_radial_21_1366)"/>
<path d="M565.337 302.655C565.337 446.14 449.012 562.43 305.511 562.43C162.01 562.43 45.6777 446.14 45.6777 302.655C45.6777 159.17 162.002 42.8872 305.511 42.8872C449.02 42.8872 565.337 159.182 565.337 302.655Z" fill="url(#paint13_radial_21_1366)"/>
<g style="mix-blend-mode:soft-light">
<path d="M305.511 40.2109C160.535 40.2109 43.0044 157.719 43.0044 302.655C43.0044 447.59 160.539 565.107 305.511 565.107C450.483 565.107 568.014 447.602 568.014 302.655C568.014 157.708 450.491 40.2109 305.511 40.2109ZM305.511 562.43C162.002 562.43 45.6815 446.14 45.6815 302.655C45.6815 159.17 162.002 42.8874 305.511 42.8874C449.02 42.8874 565.337 159.182 565.337 302.655C565.337 446.128 449.012 562.43 305.511 562.43Z" fill="white"/>
</g>
<g style="mix-blend-mode:multiply">
<path d="M565.353 302.669C565.353 446.079 448.965 562.429 305.511 562.429C162.057 562.429 45.6621 446.079 45.6621 302.669C45.6621 159.259 162.069 42.8857 305.511 42.8857C448.953 42.8857 565.353 159.235 565.353 302.669Z" fill="#BA946A"/>
<path opacity="0.96" d="M564.84 302.67C564.84 445.796 448.685 561.917 305.511 561.917C162.337 561.917 46.1782 445.796 46.1782 302.67C46.1782 159.544 162.353 43.3994 305.511 43.3994C448.669 43.3994 564.84 159.52 564.84 302.67Z" fill="#BD996E"/>
<path opacity="0.91" d="M564.324 302.666C564.324 445.508 448.398 561.4 305.512 561.4C162.625 561.4 46.6953 445.512 46.6953 302.666C46.6953 159.819 162.637 43.9111 305.512 43.9111C448.386 43.9111 564.324 159.8 564.324 302.666Z" fill="#C09D73"/>
<path opacity="0.87" d="M563.811 302.665C563.811 445.227 448.117 560.887 305.511 560.887C162.905 560.887 47.207 445.223 47.207 302.665C47.207 160.106 162.92 44.4229 305.511 44.4229C448.101 44.4229 563.811 160.083 563.811 302.661V302.665Z" fill="#C3A277"/>
<path opacity="0.83" d="M563.298 302.661C563.298 444.94 447.833 560.371 305.515 560.371C163.196 560.371 47.7236 444.94 47.7236 302.661C47.7236 160.382 163.204 44.9395 305.515 44.9395C447.825 44.9395 563.298 160.367 563.298 302.665V302.661Z" fill="#C6A67B"/>
<path opacity="0.78" d="M562.786 302.661C562.786 444.66 447.55 559.863 305.515 559.863C163.481 559.863 48.2407 444.656 48.2407 302.661C48.2407 160.667 163.489 45.4521 305.515 45.4521C447.542 45.4521 562.786 160.651 562.786 302.661Z" fill="#C9AB7F"/>
<path opacity="0.74" d="M562.269 302.658C562.269 444.373 447.266 559.347 305.515 559.347C163.764 559.347 48.7568 444.373 48.7568 302.658C48.7568 160.943 163.776 45.9648 305.515 45.9648C447.254 45.9648 562.269 160.931 562.269 302.658Z" fill="#CCAF84"/>
<path opacity="0.7" d="M486.704 483.802C586.771 383.758 586.771 221.553 486.704 121.508C386.636 21.4636 224.396 21.4636 124.329 121.508C24.2615 221.553 24.2615 383.758 124.329 483.802C224.396 583.847 386.636 583.847 486.704 483.802Z" fill="#CFB488"/>
<path opacity="0.65" d="M486.341 483.44C586.208 383.595 586.208 221.715 486.341 121.871C386.474 22.026 224.557 22.026 124.69 121.871C24.8234 221.715 24.8234 383.595 124.69 483.44C224.557 583.284 386.474 583.285 486.341 483.44Z" fill="#D2B88C"/>
<path opacity="0.61" d="M560.728 302.654C560.728 443.521 446.414 557.805 305.515 557.805C164.616 557.805 50.3027 443.521 50.3027 302.654C50.3027 161.786 164.628 47.5059 305.519 47.5059C446.411 47.5059 560.732 161.782 560.732 302.654H560.728Z" fill="#D5BD90"/>
<path opacity="0.57" d="M560.215 302.649C560.215 443.237 446.13 557.288 305.519 557.288C164.907 557.288 50.8184 443.237 50.8184 302.649C50.8184 162.061 164.911 48.0176 305.519 48.0176C446.126 48.0176 560.215 162.061 560.215 302.649Z" fill="#D8C195"/>
<path opacity="0.52" d="M559.703 302.649C559.703 442.953 445.851 556.776 305.52 556.776C165.188 556.776 51.3359 442.953 51.3359 302.649C51.3359 162.345 165.196 48.5303 305.52 48.5303C445.843 48.5303 559.703 162.345 559.703 302.645V302.649Z" fill="#DBC699"/>
<path opacity="0.48" d="M559.186 302.645C559.186 442.665 445.562 556.259 305.519 556.259C165.475 556.259 51.8516 442.665 51.8516 302.645C51.8516 162.625 165.479 49.0425 305.519 49.0425C445.558 49.0425 559.186 162.625 559.186 302.645Z" fill="#DECA9D"/>
<path opacity="0.43" d="M558.674 302.641C558.674 442.382 445.279 555.743 305.523 555.743C165.767 555.743 52.3682 442.382 52.3682 302.641C52.3682 162.901 165.763 49.5552 305.523 49.5552C445.282 49.5552 558.674 162.909 558.674 302.641Z" fill="#E1CFA1"/>
<path opacity="0.39" d="M558.162 302.642C558.162 442.098 445 555.235 305.524 555.235C166.048 555.235 52.8857 442.098 52.8857 302.642C52.8857 163.185 166.052 50.0718 305.524 50.0718C444.996 50.0718 558.162 163.193 558.162 302.642Z" fill="#E4D3A6"/>
<path opacity="0.35" d="M557.644 302.637C557.644 441.814 444.71 554.719 305.523 554.719C166.335 554.719 53.397 441.814 53.397 302.637C53.397 163.461 166.335 50.584 305.523 50.584C444.71 50.584 557.644 163.477 557.644 302.641V302.637Z" fill="#E7D8AA"/>
<path opacity="0.3" d="M557.132 302.638C557.132 441.531 444.431 554.207 305.523 554.207C166.615 554.207 53.9141 441.531 53.9141 302.638C53.9141 163.745 166.619 51.0972 305.523 51.0972C444.427 51.0972 557.132 163.757 557.132 302.638Z" fill="#EADCAE"/>
<path opacity="0.26" d="M556.62 302.634C556.62 441.243 444.147 553.69 305.527 553.69C166.907 553.69 54.4307 441.247 54.4307 302.634C54.4307 164.021 166.903 51.6094 305.527 51.6094C444.151 51.6094 556.62 164.041 556.62 302.634Z" fill="#EDE1B2"/>
<path opacity="0.22" d="M556.107 302.633C556.107 440.962 443.863 553.177 305.527 553.177C167.191 553.177 54.9468 440.962 54.9468 302.633C54.9468 164.304 167.187 52.125 305.527 52.125C443.867 52.125 556.107 164.324 556.107 302.633Z" fill="#F0E5B7"/>
<path opacity="0.17" d="M555.591 302.63C555.591 440.675 443.579 552.661 305.527 552.661C167.475 552.661 55.4634 440.679 55.4634 302.63C55.4634 164.581 167.471 52.6382 305.527 52.6382C443.583 52.6382 555.591 164.605 555.591 302.634V302.63Z" fill="#F3EABB"/>
<path opacity="0.13" d="M555.078 302.629C555.078 440.395 443.295 552.148 305.527 552.148C167.758 552.148 55.9756 440.395 55.9756 302.629C55.9756 164.864 167.754 53.1499 305.527 53.1499C443.299 53.1499 555.078 164.888 555.078 302.629Z" fill="#F6EEBF"/>
<path opacity="0.09" d="M554.565 302.626C554.565 440.108 443.012 551.633 305.531 551.633C168.05 551.633 56.4922 440.108 56.4922 302.626C56.4922 165.145 168.038 53.6631 305.527 53.6631C443.015 53.6631 554.561 165.168 554.561 302.626H554.565Z" fill="#F9F3C3"/>
<path opacity="0.04" d="M554.049 302.626C554.049 439.824 442.728 551.124 305.527 551.124C168.326 551.124 57.0088 439.824 57.0088 302.626C57.0088 165.428 168.322 54.1753 305.531 54.1753C442.739 54.1753 554.053 165.452 554.053 302.622L554.049 302.626Z" fill="#FCF7C8"/>
</g>
<g style="mix-blend-mode:multiply">
<path d="M603.388 302.67C603.388 467.141 470.02 600.444 305.512 600.444C141.004 600.444 7.63184 467.141 7.63184 302.67C7.63184 138.199 141.008 4.86035 305.512 4.86035C470.016 4.86035 603.388 138.175 603.388 302.67Z" fill="white"/>
<path opacity="0.96" d="M602.795 302.343C602.795 466.491 469.691 599.534 305.507 599.534C141.322 599.534 8.21777 466.491 8.21777 302.343C8.21777 138.195 141.33 5.12451 305.51 5.12451C469.691 5.12451 602.799 138.175 602.799 302.343H602.795Z" fill="#BD996E"/>
<path opacity="0.91" d="M602.209 302.016C602.209 465.84 469.369 598.619 305.511 598.619C141.654 598.619 8.80615 465.84 8.80615 302.016C8.80615 138.191 141.658 5.38477 305.511 5.38477C469.365 5.38477 602.209 138.172 602.209 302.016Z" fill="#C09D73"/>
<path opacity="0.87" d="M601.617 301.689C601.617 465.19 469.037 597.705 305.507 597.705C141.977 597.705 9.39697 465.19 9.39697 301.689C9.39697 138.187 141.981 5.64893 305.511 5.64893C469.041 5.64893 601.621 138.172 601.621 301.689H601.617Z" fill="white"/>
<path opacity="0.83" d="M601.03 301.362C601.03 464.54 468.714 596.794 305.511 596.794C142.309 596.794 9.98486 464.54 9.98486 301.362C9.98486 138.184 142.309 5.91309 305.511 5.91309C468.714 5.91309 601.03 138.172 601.03 301.366V301.362Z" fill="#C6A67B"/>
<path opacity="0.78" d="M600.442 301.034C600.442 463.885 468.391 595.879 305.511 595.879C142.632 595.879 10.5762 463.889 10.5762 301.034C10.5762 138.179 142.632 6.17285 305.511 6.17285C468.391 6.17285 600.442 138.171 600.442 301.034Z" fill="#C9AB7F"/>
<path opacity="0.74" d="M599.851 300.706C599.851 463.234 468.064 594.965 305.508 594.965C142.952 594.965 11.1641 463.238 11.1641 300.706C11.1641 138.175 142.956 6.43652 305.512 6.43652C468.068 6.43652 599.855 138.171 599.855 300.706H599.851Z" fill="#CCAF84"/>
<path opacity="0.7" d="M599.263 300.379C599.263 462.584 467.74 594.054 305.511 594.054C143.282 594.054 11.7544 462.588 11.7544 300.379C11.7544 138.171 143.282 6.69678 305.511 6.69678C467.74 6.69678 599.263 138.167 599.263 300.379Z" fill="#CFB488"/>
<path opacity="0.65" d="M598.676 300.052C598.676 461.933 467.417 593.14 305.512 593.14C143.606 593.14 12.3428 461.937 12.3428 300.052C12.3428 138.167 143.606 6.96094 305.512 6.96094C467.417 6.96094 598.676 138.167 598.676 300.052Z" fill="#D2B88C"/>
<path opacity="0.61" d="M512.392 506.559C626.649 392.328 626.649 207.122 512.392 92.8907C398.135 -21.3408 212.888 -21.3408 98.6307 92.8907C-15.6264 207.122 -15.6264 392.328 98.6307 506.559C212.888 620.791 398.135 620.791 512.392 506.559Z" fill="#D5BD90"/>
<path opacity="0.57" d="M511.973 505.819C626.001 391.816 626.001 206.982 511.973 92.9803C397.946 -21.0218 213.071 -21.0217 99.0429 92.9804C-14.9847 206.982 -14.9847 391.816 99.0429 505.818C213.071 619.821 397.946 619.821 511.973 505.819Z" fill="#D8C195"/>
<path opacity="0.52" d="M596.91 299.071C596.91 459.983 466.443 590.4 305.511 590.4C144.58 590.4 14.1128 459.983 14.1128 299.071C14.1128 138.16 144.583 7.74951 305.511 7.74951C466.439 7.74951 596.91 138.167 596.91 299.071Z" fill="#DBC699"/>
<path opacity="0.48" d="M596.318 298.744C596.318 459.332 466.112 589.486 305.507 589.486C144.903 589.486 14.7002 459.332 14.7002 298.744C14.7002 138.156 144.907 8.00977 305.511 8.00977C466.116 8.00977 596.322 138.164 596.322 298.744H596.318Z" fill="#DECA9D"/>
<path opacity="0.43" d="M595.731 298.416C595.731 458.681 465.789 588.575 305.511 588.575C145.234 588.575 15.2876 458.681 15.2876 298.416C15.2876 138.151 145.23 8.27344 305.511 8.27344C465.792 8.27344 595.731 138.163 595.731 298.416Z" fill="#E1CFA1"/>
<path opacity="0.39" d="M595.14 298.09C595.14 458.032 465.462 587.661 305.508 587.661C145.554 587.661 15.8794 458.032 15.8794 298.09C15.8794 138.148 145.558 8.53809 305.512 8.53809C465.466 8.53809 595.144 138.164 595.144 298.094L595.14 298.09Z" fill="#E4D3A6"/>
<path opacity="0.35" d="M594.552 297.763C594.552 457.382 465.138 586.747 305.508 586.747C145.877 586.747 16.4668 457.382 16.4668 297.763C16.4668 138.145 145.881 8.79883 305.512 8.79883C465.142 8.79883 594.556 138.16 594.556 297.763H594.552Z" fill="#E7D8AA"/>
<path opacity="0.3" d="M593.965 297.436C593.965 456.731 464.815 585.836 305.511 585.836C146.208 585.836 17.0581 456.731 17.0581 297.436C17.0581 138.14 146.208 9.0625 305.511 9.0625C464.815 9.0625 593.965 138.16 593.965 297.436Z" fill="#EADCAE"/>
<path opacity="0.26" d="M593.373 297.108C593.373 456.08 464.488 584.921 305.507 584.921C146.527 584.921 17.6455 456.08 17.6455 297.108C17.6455 138.136 146.531 9.32227 305.511 9.32227C464.492 9.32227 593.377 138.159 593.377 297.108H593.373Z" fill="#EDE1B2"/>
<path opacity="0.22" d="M592.786 296.781C592.786 455.43 464.164 584.007 305.511 584.007C146.858 584.007 18.2368 455.43 18.2368 296.781C18.2368 138.132 146.858 9.58643 305.511 9.58643C464.164 9.58643 592.786 138.16 592.786 296.781Z" fill="#F0E5B7"/>
<path opacity="0.17" d="M592.199 296.453C592.199 454.779 463.841 583.096 305.512 583.096C147.182 583.096 18.8247 454.779 18.8247 296.453C18.8247 138.128 147.182 9.8501 305.512 9.8501C463.841 9.8501 592.199 138.159 592.199 296.457V296.453Z" fill="#F3EABB"/>
<path opacity="0.13" d="M591.608 296.127C591.608 454.129 463.511 582.182 305.508 582.182C147.506 582.182 19.4165 454.129 19.4165 296.127C19.4165 138.124 147.51 10.1108 305.512 10.1108C463.514 10.1108 591.612 138.156 591.612 296.127H591.608Z" fill="#F6EEBF"/>
<path opacity="0.09" d="M591.019 295.8C591.019 453.479 463.186 581.268 305.511 581.268C147.835 581.268 20.0024 453.479 20.0024 295.8C20.0024 138.12 147.832 10.375 305.511 10.375C463.19 10.375 591.019 138.156 591.019 295.8Z" fill="#F9F3C3"/>
<path opacity="0.04" d="M590.432 295.473C590.432 452.825 462.863 580.357 305.511 580.357C148.16 580.357 20.5947 452.828 20.5947 295.473C20.5947 138.116 148.156 10.6353 305.511 10.6353C462.867 10.6353 590.432 138.152 590.432 295.473Z" fill="#FCF7C8"/>
</g>
</g>
<g filter="url(#filter0_d_21_1366)">
<rect x="242.944" y="240.407" width="124.766" height="124.766" rx="62.3827" fill="url(#paint14_radial_21_1366)"/>
<rect x="243.562" y="241.024" width="123.53" height="123.53" rx="61.7651" stroke="#FC8B00" stroke-width="1.2353"/>
</g>
<mask id="mask1_21_1366" style="mask-type:alpha" maskUnits="userSpaceOnUse" x="242" y="240" width="126" height="126">
<rect x="242.944" y="240.407" width="124.766" height="124.766" rx="62.3827" fill="url(#paint15_radial_21_1366)"/>
</mask>
<g mask="url(#mask1_21_1366)">
<g opacity="0.7">
<path d="M330.901 319.429C332.571 327.211 325.19 333.883 317.615 331.438L222.249 300.654C214.674 298.209 212.587 288.481 218.491 283.144L292.834 215.946C298.739 210.608 308.207 213.665 309.877 221.447L330.901 319.429Z" fill="url(#paint16_linear_21_1366)"/>
<path d="M343.558 333.761C345.228 341.544 337.847 348.215 330.272 345.77L234.906 314.987C227.331 312.542 225.244 302.814 231.149 297.476L305.491 230.278C311.396 224.941 320.864 227.997 322.534 235.78L343.558 333.761Z" fill="url(#paint17_linear_21_1366)"/>
</g>
<path d="M286.69 317.887C286.018 317.927 285.522 317.948 285.202 317.948C284.148 317.948 283.166 317.817 282.257 317.555C281.151 317.243 280.293 316.776 279.683 316.152C277.709 317.349 275.508 317.948 273.08 317.948C269.679 317.948 266.77 316.816 264.352 314.552C261.892 312.259 260.663 309.462 260.663 306.163C260.663 302.813 261.861 299.976 264.259 297.652C266.646 295.339 269.566 294.182 273.018 294.182C276.418 294.182 279.342 295.293 281.792 297.516C284.303 299.79 285.558 302.571 285.558 305.861C285.558 308.396 284.913 310.599 283.621 312.47C284.406 313.174 285.429 313.431 286.69 313.24V317.887ZM279.559 305.77C279.559 303.919 278.95 302.38 277.73 301.153C276.5 299.926 274.94 299.312 273.049 299.312C271.333 299.312 269.902 299.87 268.755 300.987C267.68 302.023 266.992 303.391 266.693 305.091C267.344 304.82 267.886 304.634 268.32 304.533C268.868 304.392 269.437 304.322 270.026 304.322C271.669 304.322 273.302 304.805 274.924 305.77C276.299 306.605 277.575 307.727 278.753 309.135C279.291 308.24 279.559 307.118 279.559 305.77ZM275.746 312.229C275.25 311.655 274.811 311.182 274.428 310.81C273.953 310.337 273.477 309.95 273.002 309.648C271.917 308.934 270.713 308.577 269.39 308.577C268.729 308.577 268.031 308.703 267.297 308.954C268.413 311.53 270.32 312.817 273.018 312.817C274.092 312.817 275.002 312.621 275.746 312.229Z" fill="#724D00"/>
<path d="M307.152 308.426C307.152 309.985 307.018 311.248 306.749 312.214C306.388 313.451 305.742 314.527 304.812 315.443C303.148 317.093 300.957 317.917 298.239 317.917C296.916 317.917 295.697 317.731 294.58 317.359C293.32 316.937 292.286 316.308 291.48 315.473C290.488 314.457 289.827 313.37 289.496 312.214C289.351 311.69 289.248 311.102 289.186 310.448C289.145 309.925 289.124 309.251 289.124 308.426V294.604H295.123V308.426C295.123 309.03 295.154 309.548 295.216 309.98C295.299 310.534 295.438 311.001 295.635 311.384C296.11 312.319 296.957 312.787 298.177 312.787C299.438 312.787 300.285 312.329 300.719 311.414C300.895 311.042 301.019 310.579 301.091 310.026C301.133 309.623 301.153 309.09 301.153 308.426V294.604H307.152V308.426Z" fill="#724D00"/>
<path d="M324.762 317.48L323.615 314.175H315.461L314.221 317.48H307.772L317.198 294.604H321.926L331.273 317.48H324.762ZM319.616 301.726H319.523L317.105 309.543H322.034L319.616 301.726Z" fill="#724D00"/>
<path d="M342.527 309.166V317.48H336.528V309.166L329.506 294.604H336.017L339.505 303.794L343.024 294.604H349.472L342.527 309.166Z" fill="#724D00"/>
</g>
</g>
<g filter="url(#filter1_d_21_1366)">
<rect x="286.622" width="44.0285" height="66.6072" fill="url(#pattern0_21_1366)" shape-rendering="crispEdges"/>
</g>
<defs>
<filter id="filter0_d_21_1366" x="242.327" y="240.407" width="126.001" height="128.472" filterUnits="userSpaceOnUse" color-interpolation-filters="sRGB">
<feFlood flood-opacity="0" result="BackgroundImageFix"/>
<feColorMatrix in="SourceAlpha" type="matrix" values="0 0 0 0 0 0 0 0 0 0 0 0 0 0 0 0 0 0 127 0" result="hardAlpha"/>
<feMorphology radius="0.617651" operator="dilate" in="SourceAlpha" result="effect1_dropShadow_21_1366"/>
<feOffset dy="3.08825"/>
<feComposite in2="hardAlpha" operator="out"/>
<feColorMatrix type="matrix" values="0 0 0 0 0.408654 0 0 0 0 0.225409 0 0 0 0 0 0 0 0 1 0"/>
<feBlend mode="normal" in2="BackgroundImageFix" result="effect1_dropShadow_21_1366"/>
<feBlend mode="normal" in="SourceGraphic" in2="effect1_dropShadow_21_1366" result="shape"/>
</filter>
<filter id="filter1_d_21_1366" x="283.45" y="0" width="50.3719" height="72.951" filterUnits="userSpaceOnUse" color-interpolation-filters="sRGB">
<feFlood flood-opacity="0" result="BackgroundImageFix"/>
<feColorMatrix in="SourceAlpha" type="matrix" values="0 0 0 0 0 0 0 0 0 0 0 0 0 0 0 0 0 0 127 0" result="hardAlpha"/>
<feOffset dy="3.17177"/>
<feGaussianBlur stdDeviation="1.58589"/>
<feComposite in2="hardAlpha" operator="out"/>
<feColorMatrix type="matrix" values="0 0 0 0 0 0 0 0 0 0 0 0 0 0 0 0 0 0 0.25 0"/>
<feBlend mode="normal" in2="BackgroundImageFix" result="effect1_dropShadow_21_1366"/>
<feBlend mode="normal" in="SourceGraphic" in2="effect1_dropShadow_21_1366" result="shape"/>
</filter>
<pattern id="pattern0_21_1366" patternContentUnits="objectBoundingBox" width="1" height="1">
<use xlink:href="#image0_21_1366" transform="matrix(0.00194175 0 0 0.00128353 0 0.0130327)"/>
</pattern>
<linearGradient id="paint0_linear_21_1366" x1="305.636" y1="667.453" x2="305.636" y2="444.907" gradientUnits="userSpaceOnUse">
<stop stop-color="#260709"/>
<stop offset="0.0220222" stop-color="#323232"/>
<stop offset="0.2218" stop-color="#303030"/>
<stop offset="0.328" stop-color="#1A1A1A"/>
<stop offset="0.4459" stop-color="#171717"/>
<stop offset="0.6368" stop-color="#171717"/>
<stop offset="0.8236" stop-color="#171717"/>
<stop offset="1" stop-color="#171717"/>
</linearGradient>
<linearGradient id="paint1_linear_21_1366" x1="306.192" y1="674.259" x2="306.192" y2="629.547" gradientUnits="userSpaceOnUse">
<stop offset="0.0220222" stop-color="#323232"/>
<stop offset="0.129808" stop-color="#303030"/>
<stop offset="0.328" stop-color="#1A1A1A"/>
<stop offset="0.4459" stop-color="#171717"/>
<stop offset="1"/>
</linearGradient>
<radialGradient id="paint2_radial_21_1366" cx="0" cy="0" r="1" gradientUnits="userSpaceOnUse" gradientTransform="translate(56.8644 303.769) scale(510.096 2082.19)">
<stop offset="0.290553" stop-color="#FFFCF8"/>
<stop offset="1" stop-color="#FFF8E5"/>
</radialGradient>
<radialGradient id="paint3_radial_21_1366" cx="0" cy="0" r="1" gradientUnits="userSpaceOnUse" gradientTransform="translate(74.0729 302.683) scale(216.05 677.739)">
<stop offset="0.290553" stop-color="#FFFCF8"/>
<stop offset="1" stop-color="#FFF8E5"/>
</radialGradient>
<radialGradient id="paint4_radial_21_1366" cx="0" cy="0" r="1" gradientUnits="userSpaceOnUse" gradientTransform="translate(94.1258 188.973) rotate(26.6275) scale(229.025 934.568)">
<stop stop-color="#FFF8E5"/>
<stop offset="0.709447" stop-color="#FFB53E"/>
</radialGradient>
<radialGradient id="paint5_radial_21_1366" cx="0" cy="0" r="1" gradientUnits="userSpaceOnUse" gradientTransform="translate(224.601 176.461) scale(166.063 881.723)">
<stop offset="0.290553" stop-color="#FFFCF8"/>
<stop offset="1" stop-color="#FFF8E5"/>
</radialGradient>
<radialGradient id="paint6_radial_21_1366" cx="0" cy="0" r="1" gradientUnits="userSpaceOnUse" gradientTransform="translate(479.162 126.211) rotate(133.488) scale(283.632 1157.62)">
<stop stop-color="#FFF8E5"/>
<stop offset="0.709447" stop-color="#FFB53E"/>
</radialGradient>
<radialGradient id="paint7_radial_21_1366" cx="0" cy="0" r="1" gradientUnits="userSpaceOnUse" gradientTransform="translate(326.514 302.627) scale(216.057 677.614)">
<stop offset="0.290553" stop-color="#FFFCF8"/>
<stop offset="1" stop-color="#FFF8E5"/>
</radialGradient>
<radialGradient id="paint8_radial_21_1366" cx="0" cy="0" r="1" gradientUnits="userSpaceOnUse" gradientTransform="translate(474.066 475.84) rotate(-132.555) scale(279.353 1139.91)">
<stop stop-color="#FFF8E5"/>
<stop offset="0.709447" stop-color="#FFB53E"/>
</radialGradient>
<radialGradient id="paint9_radial_21_1366" cx="0" cy="0" r="1" gradientUnits="userSpaceOnUse" gradientTransform="translate(224.665 428.894) scale(166.059 881.379)">
<stop offset="0.290553" stop-color="#FFFCF8"/>
<stop offset="1" stop-color="#FFF8E5"/>
</radialGradient>
<radialGradient id="paint10_radial_21_1366" cx="0" cy="0" r="1" gradientUnits="userSpaceOnUse" gradientTransform="translate(94.1748 416.407) rotate(-23.5768) scale(257.112 1049.25)">
<stop stop-color="#FFF8E5"/>
<stop offset="0.709447" stop-color="#FFB53E"/>
</radialGradient>
<radialGradient id="paint11_radial_21_1366" cx="0" cy="0" r="1" gradientUnits="userSpaceOnUse" gradientTransform="translate(18.0217 302.659) scale(590.219 2408.67)">
<stop stop-color="#FFF8E5"/>
<stop offset="0.709447" stop-color="#FFB53E"/>
</radialGradient>
<radialGradient id="paint12_radial_21_1366" cx="0" cy="0" r="1" gradientUnits="userSpaceOnUse" gradientTransform="translate(23.4807 302.658) scale(579.008 2362.97)">
<stop offset="0.290553" stop-color="#FFB53E"/>
<stop offset="1" stop-color="#FFF8E5"/>
</radialGradient>
<radialGradient id="paint13_radial_21_1366" cx="0" cy="0" r="1" gradientUnits="userSpaceOnUse" gradientTransform="translate(58.7584 302.659) scale(506.578 2067.36)">
<stop offset="0.290553" stop-color="#FFB53E"/>
<stop offset="1" stop-color="#FFF8E5"/>
</radialGradient>
<radialGradient id="paint14_radial_21_1366" cx="0" cy="0" r="1" gradientUnits="userSpaceOnUse" gradientTransform="translate(305.327 302.789) rotate(90) scale(90.177)">
<stop stop-color="white"/>
<stop offset="1" stop-color="#FEE5A5"/>
</radialGradient>
<radialGradient id="paint15_radial_21_1366" cx="0" cy="0" r="1" gradientUnits="userSpaceOnUse" gradientTransform="translate(305.327 302.789) rotate(90) scale(90.177)">
<stop stop-color="white"/>
<stop offset="1" stop-color="#FEE5A5"/>
</radialGradient>
<linearGradient id="paint16_linear_21_1366" x1="334.658" y1="336.939" x2="229.331" y2="220.413" gradientUnits="userSpaceOnUse">
<stop offset="0.14" stop-color="#FFB042" stop-opacity="0"/>
<stop offset="1" stop-color="#E88700"/>
</linearGradient>
<linearGradient id="paint17_linear_21_1366" x1="347.315" y1="351.272" x2="241.988" y2="234.746" gradientUnits="userSpaceOnUse">
<stop offset="0.14" stop-color="#FFB042" stop-opacity="0"/>
<stop offset="1" stop-color="#E88700"/>
</linearGradient>
<clipPath id="clip0_21_1366">
<rect width="456.522" height="229.275" fill="white" transform="translate(77.4092 444.907)"/>
</clipPath>
<clipPath id="clip1_21_1366">
<rect width="609.498" height="607.148" fill="white" transform="translate(0.57666)"/>
</clipPath>
</defs>
</svg>
